# xmcd
#
# Track frame offsets:
#	150
#	15476
#	30737
#	49475
#	55616
#	61781
#	67962
#	74251
#	78341
#	82402
#	86459
#	90827
#	109645
#	126349
#	141234
#
# Disc length: 2067 seconds
#
# Revision: 1
# Processed by: cddbd v1.5.2PL0 Copyright (c) Steve Scherf et al.
# Submitted via: audiograbber 1.83.01
#
DISCID=c108110f
DTITLE=Joe Filisko - I.O.U. Blues #1
DYEAR=1900
DGENRE=Blues
TTITLE0=Acoustic Harp Version at 62 bpm
TTITLE1=Electric Harp Version at 62 bpm
TTITLE2=Electric Harp Version at 50 bpm
TTITLE3=Page 1 at 40 bpm
TTITLE4=Page 2 at 40 bpm
TTITLE5=Page 3 at 40 bpm
TTITLE6=Page 4 at 40 bpm
TTITLE7=Page 1 at 62 bpm
TTITLE8=Page 2 at 62 bpm
TTITLE9=Page 3 at 62 bpm
TTITLE10=Page 4 at 62 bpm
TTITLE11=Practice Track at 50 bpm
TTITLE12=Practice Track at 56 bpm
TTITLE13=Practice Track at 62 bpm
TTITLE14=Practice Track at 68 bpm
EXTD=
EXTT0=
EXTT1=
EXTT2=
EXTT3=
EXTT4=
EXTT5=
EXTT6=
EXTT7=
EXTT8=
EXTT9=
EXTT10=
EXTT11=
EXTT12=
EXTT13=
EXTT14=
PLAYORDER=
